# Blender 3.4.1
# www.blender.org
mtllib 4way.mtl
o node_id3
v -0.095180 0.021220 0.020173
v -0.095180 0.020076 -0.204611
v -0.093013 -0.056112 0.020567
v -0.093013 -0.057257 -0.204218
v -0.095180 0.020076 -0.204611
v -0.227451 -0.061024 -0.204198
v -0.093013 -0.057257 -0.204218
v 0.101795 0.026741 0.020145
v 0.103962 -0.050592 0.020539
v 0.094177 0.025383 -0.204638
v 0.094177 0.025383 -0.204638
v 0.103962 -0.050592 0.020539
v 0.096344 -0.051950 -0.204245
v 0.001851 -0.056436 -0.565319
v -0.000316 0.020896 -0.565713
v 0.088748 -0.053307 -0.429002
v 0.088748 -0.053307 -0.429002
v -0.000316 0.020896 -0.565713
v 0.086581 0.024026 -0.429396
v -0.093013 -0.056112 0.020567
v 0.103962 -0.050592 0.020539
v -0.095180 0.021220 0.020173
v -0.095180 0.021220 0.020173
v 0.103962 -0.050592 0.020539
v 0.101795 0.026741 0.020145
v 0.001851 -0.056436 -0.565319
v -0.085591 -0.058193 -0.428977
v -0.000316 0.020896 -0.565713
v -0.000316 0.020896 -0.565713
v -0.085591 -0.058193 -0.428977
v -0.087759 0.019140 -0.429371
v -0.085591 -0.058193 -0.428977
v -0.229618 0.016308 -0.204592
v -0.087759 0.019140 -0.429371
v -0.095180 0.021220 0.020173
v 0.101795 0.026741 0.020145
v -0.095180 0.020076 -0.204611
v 0.094177 0.025383 -0.204638
v 0.230521 -0.048190 -0.204264
v 0.096344 -0.051950 -0.204245
v 0.088748 -0.053307 -0.429002
v 0.088748 -0.053307 -0.429002
v 0.096344 -0.051950 -0.204245
v -0.085591 -0.058193 -0.428977
v -0.093013 -0.057257 -0.204218
v -0.227451 -0.061024 -0.204198
v -0.229618 0.016308 -0.204592
v -0.095180 0.020076 -0.204611
v -0.087759 0.019140 -0.429371
v -0.087759 0.019140 -0.429371
v -0.000316 0.020896 -0.565713
v 0.086581 0.024026 -0.429396
v -0.093013 -0.056112 0.020567
v 0.103962 -0.050592 0.020539
v 0.088748 -0.053307 -0.429002
v 0.228353 0.029143 -0.204657
v 0.230521 -0.048190 -0.204264
v 0.230521 -0.048190 -0.204264
v 0.228353 0.029143 -0.204657
v 0.096344 -0.051950 -0.204245
v 0.094177 0.025383 -0.204638
v -0.227451 -0.061024 -0.204198
v -0.229618 0.016308 -0.204592
v 0.086581 0.024026 -0.429396
v 0.228353 0.029143 -0.204657
v 0.001851 -0.056436 -0.565319
vn -0.9996 -0.0280 0.0001
vn -0.0000 0.0051 1.0000
vn 0.9990 0.0278 -0.0340
vn 0.8428 0.0209 -0.5378
vn -0.8413 -0.0263 -0.5399
vn -0.8452 -0.0264 -0.5338
vn -0.0280 0.9996 -0.0051
vn 0.0280 -0.9996 0.0051
vn 0.8454 0.0210 -0.5338
vt 0.971754 0.999105
vt 0.999757 0.691267
vt 0.826393 0.895550
vt 0.759877 0.730974
vt 0.999757 0.691267
vt 0.834309 0.635660
vt 0.759877 0.730974
vt 0.304893 0.360277
vt 0.230812 0.228563
vt 0.146674 0.528892
vt 0.504772 0.831170
vt 0.624304 0.999928
vt 0.593706 0.749319
vt 0.622711 0.395126
vt 0.632455 0.283054
vt 0.459782 0.571076
vt 0.030089 0.972901
vt 0.339471 0.945882
vt 0.274848 0.831233
vt 0.826393 0.895550
vt 0.624304 0.999928
vt 0.971754 0.999105
vt 0.543179 0.350581
vt 0.230812 0.228563
vt 0.304893 0.360277
vt 0.622711 0.395126
vt 0.726266 0.419526
vt 0.632455 0.283054
vt 0.339471 0.945882
vt 0.525838 0.999981
vt 0.446115 0.827327
vt 0.726266 0.419526
vt 0.889448 0.575335
vt 0.942229 0.394757
vt 0.543179 0.350581
vt 0.304893 0.360277
vt 0.437777 0.616330
vt 0.146674 0.528892
vt 0.067226 0.749141
vt 0.000225 0.656506
vt 0.030089 0.972901
vt 0.459782 0.571076
vt 0.593706 0.749319
vt 0.726266 0.419526
vt 0.759877 0.730974
vt 0.834309 0.635660
vt 0.889448 0.575335
vt 0.999757 0.691267
vt 0.942229 0.394757
vt 0.446115 0.827327
vt 0.339471 0.945882
vt 0.274848 0.831233
vt 0.826393 0.895550
vt 0.624304 0.999928
vt 0.030089 0.972901
vt 0.125818 0.737436
vt 0.067226 0.749141
vt 0.067226 0.749141
vt 0.125818 0.737436
vt 0.000225 0.656506
vt 0.146674 0.528892
vt 0.834309 0.635660
vt 0.889448 0.575335
vt 0.274848 0.831233
vt 0.125818 0.737436
vt 0.622711 0.395126
s 0
usemtl 79
f 1/1/1 2/2/1 3/3/1
f 3/3/1 2/2/1 4/4/1
f 5/5/2 6/6/2 7/7/2
f 8/8/3 9/9/3 10/10/3
f 11/11/3 12/12/3 13/13/3
f 14/14/4 15/15/4 16/16/4
f 17/17/4 18/18/4 19/19/4
f 20/20/2 21/21/2 22/22/2
f 23/23/2 24/24/2 25/25/2
f 26/26/5 27/27/5 28/28/5
f 29/29/5 30/30/5 31/31/5
f 32/32/6 33/33/6 34/34/6
f 35/35/7 36/36/7 37/37/7
f 37/37/7 36/36/7 38/38/7
f 39/39/8 40/40/8 41/41/8
f 42/42/8 43/43/8 44/44/8
f 43/43/8 45/45/8 44/44/8
f 44/44/8 45/45/8 46/46/8
f 47/47/7 48/48/7 49/49/7
f 50/50/7 37/37/7 38/38/7
f 51/51/7 50/50/7 52/52/7
f 52/52/7 50/50/7 38/38/7
f 53/53/8 45/45/8 54/54/8
f 54/54/8 45/45/8 43/43/8
f 55/55/9 56/56/9 57/57/9
f 58/58/2 59/59/2 60/60/2
f 59/59/2 61/61/2 60/60/2
f 32/32/6 62/62/6 33/33/6
f 63/63/2 6/6/2 5/5/2
f 64/64/9 56/56/9 55/55/9
f 38/38/7 65/65/7 52/52/7
f 44/44/8 66/66/8 42/42/8
o node_id37
v 0.115638 0.040512 0.085372
v 0.115638 0.040512 0.329745
v 0.113472 -0.036822 0.085372
v 0.113472 -0.036822 0.329745
v 0.115638 0.040512 0.329745
v 0.247910 -0.040587 0.329745
v 0.113472 -0.036822 0.329745
v -0.081337 0.046028 0.085372
v -0.083503 -0.031306 0.085372
v -0.073719 0.045815 0.329745
v -0.073719 0.045815 0.329745
v -0.083503 -0.031306 0.085372
v -0.075885 -0.031519 0.329745
v 0.018608 -0.034165 0.722301
v 0.020773 0.043168 0.722301
v -0.068289 -0.031732 0.574091
v -0.068289 -0.031732 0.574091
v 0.020773 0.043168 0.722301
v -0.066124 0.045602 0.574091
v 0.113472 -0.036822 0.085372
v -0.083503 -0.031306 0.085372
v 0.115638 0.040512 0.085372
v 0.115638 0.040512 0.085372
v -0.083503 -0.031306 0.085372
v -0.081337 0.046028 0.085372
v 0.018608 -0.034165 0.722301
v 0.106051 -0.036614 0.574091
v 0.020773 0.043168 0.722301
v 0.020773 0.043168 0.722301
v 0.106051 -0.036614 0.574091
v 0.108216 0.040719 0.574091
v 0.106051 -0.036614 0.574091
v 0.250076 0.036746 0.329745
v 0.108216 0.040719 0.574091
v 0.115638 0.040512 0.085372
v -0.081337 0.046028 0.085372
v 0.115638 0.040512 0.329745
v -0.073719 0.045815 0.329745
v -0.210062 -0.027761 0.329745
v -0.075885 -0.031519 0.329745
v -0.068289 -0.031732 0.574091
v -0.068289 -0.031732 0.574091
v -0.075885 -0.031519 0.329745
v 0.106051 -0.036614 0.574091
v 0.113472 -0.036822 0.329745
v 0.247910 -0.040587 0.329745
v 0.250076 0.036746 0.329745
v 0.115638 0.040512 0.329745
v 0.108216 0.040719 0.574091
v 0.108216 0.040719 0.574091
v 0.020773 0.043168 0.722301
v -0.066124 0.045602 0.574091
v 0.113472 -0.036822 0.085372
v -0.083503 -0.031306 0.085372
v -0.068289 -0.031732 0.574091
v -0.207896 0.049573 0.329745
v -0.210062 -0.027761 0.329745
v -0.210062 -0.027761 0.329745
v -0.207896 0.049573 0.329745
v -0.075885 -0.031519 0.329745
v -0.073719 0.045815 0.329745
v 0.247910 -0.040587 0.329745
v 0.250076 0.036746 0.329745
v -0.066124 0.045602 0.574091
v -0.207896 0.049573 0.329745
v 0.018608 -0.034165 0.722301
vn 0.9996 -0.0280 -0.0000
vn -0.0000 -0.0000 -1.0000
vn -0.9991 0.0280 0.0312
vn -0.8622 0.0241 0.5059
vn 0.8608 -0.0241 0.5083
vn 0.8644 -0.0242 0.5022
vn 0.0280 0.9996 -0.0000
vn -0.0280 -0.9996 -0.0000
vn -0.8645 0.0242 0.5020
vt 0.971754 0.999105
vt 0.999757 0.691267
vt 0.826393 0.895550
vt 0.759877 0.730974
vt 0.999757 0.691267
vt 0.834309 0.635660
vt 0.759877 0.730974
vt 0.304893 0.360277
vt 0.230812 0.228563
vt 0.146674 0.528892
vt 0.504772 0.831170
vt 0.624304 0.999928
vt 0.593706 0.749319
vt 0.622711 0.395126
vt 0.632455 0.283054
vt 0.459782 0.571076
vt 0.030089 0.972901
vt 0.339471 0.945882
vt 0.274848 0.831233
vt 0.826393 0.895550
vt 0.624304 0.999928
vt 0.971754 0.999105
vt 0.543179 0.350581
vt 0.230812 0.228563
vt 0.304893 0.360277
vt 0.622711 0.395126
vt 0.726266 0.419526
vt 0.632455 0.283054
vt 0.339471 0.945882
vt 0.525838 0.999981
vt 0.446115 0.827327
vt 0.726266 0.419526
vt 0.889448 0.575335
vt 0.942229 0.394757
vt 0.543179 0.350581
vt 0.304893 0.360277
vt 0.437777 0.616330
vt 0.146674 0.528892
vt 0.067226 0.749141
vt 0.000225 0.656506
vt 0.030089 0.972901
vt 0.459782 0.571076
vt 0.593706 0.749319
vt 0.726266 0.419526
vt 0.759877 0.730974
vt 0.834309 0.635660
vt 0.889448 0.575335
vt 0.999757 0.691267
vt 0.942229 0.394757
vt 0.446115 0.827327
vt 0.339471 0.945882
vt 0.274848 0.831233
vt 0.826393 0.895550
vt 0.624304 0.999928
vt 0.030089 0.972901
vt 0.125818 0.737436
vt 0.067226 0.749141
vt 0.067226 0.749141
vt 0.125818 0.737436
vt 0.000225 0.656506
vt 0.146674 0.528892
vt 0.834309 0.635660
vt 0.889448 0.575335
vt 0.274848 0.831233
vt 0.125818 0.737436
vt 0.622711 0.395126
s 0
usemtl 81
f 67/67/10 68/68/10 69/69/10
f 69/69/10 68/68/10 70/70/10
f 71/71/11 72/72/11 73/73/11
f 74/74/12 75/75/12 76/76/12
f 77/77/12 78/78/12 79/79/12
f 80/80/13 81/81/13 82/82/13
f 83/83/13 84/84/13 85/85/13
f 86/86/11 87/87/11 88/88/11
f 89/89/11 90/90/11 91/91/11
f 92/92/14 93/93/14 94/94/14
f 95/95/14 96/96/14 97/97/14
f 98/98/15 99/99/15 100/100/15
f 101/101/16 102/102/16 103/103/16
f 103/103/16 102/102/16 104/104/16
f 105/105/17 106/106/17 107/107/17
f 108/108/17 109/109/17 110/110/17
f 109/109/17 111/111/17 110/110/17
f 110/110/17 111/111/17 112/112/17
f 113/113/16 114/114/16 115/115/16
f 116/116/16 103/103/16 104/104/16
f 117/117/16 116/116/16 118/118/16
f 118/118/16 116/116/16 104/104/16
f 119/119/17 111/111/17 120/120/17
f 120/120/17 111/111/17 109/109/17
f 121/121/18 122/122/18 123/123/18
f 124/124/11 125/125/11 126/126/11
f 125/125/11 127/127/11 126/126/11
f 98/98/15 128/128/15 99/99/15
f 129/129/11 72/72/11 71/71/11
f 130/130/18 122/122/18 121/121/18
f 104/104/16 131/131/16 118/118/16
f 110/110/17 132/132/17 108/108/17
o node_id48
v 0.010309 0.041664 -0.042604
v 0.269466 0.040664 -0.042604
v 0.009790 -0.035669 -0.040437
v 0.268947 -0.036669 -0.040437
v 0.269466 0.040664 -0.042604
v 0.268922 -0.040437 -0.174875
v 0.268947 -0.036669 -0.040437
v 0.010346 0.047184 0.154371
v 0.009827 -0.030149 0.156538
v 0.269502 0.045970 0.146753
v 0.269502 0.045970 0.146753
v 0.009827 -0.030149 0.156538
v 0.268982 -0.031362 0.148920
v 0.685269 -0.035617 0.054428
v 0.685788 0.041716 0.052260
v 0.528109 -0.032575 0.141325
v 0.528109 -0.032575 0.141325
v 0.685788 0.041716 0.052260
v 0.528628 0.044758 0.139157
v 0.009790 -0.035669 -0.040437
v 0.009827 -0.030149 0.156538
v 0.010309 0.041664 -0.042604
v 0.010309 0.041664 -0.042604
v 0.009827 -0.030149 0.156538
v 0.010346 0.047184 0.154371
v 0.685269 -0.035617 0.054428
v 0.528076 -0.037461 -0.033015
v 0.685788 0.041716 0.052260
v 0.685788 0.041716 0.052260
v 0.528076 -0.037461 -0.033015
v 0.528596 0.039872 -0.035182
v 0.528076 -0.037461 -0.033015
v 0.269441 0.036896 -0.177042
v 0.528596 0.039872 -0.035182
v 0.010309 0.041664 -0.042604
v 0.010346 0.047184 0.154371
v 0.269466 0.040664 -0.042604
v 0.269502 0.045970 0.146753
v 0.269008 -0.027602 0.283097
v 0.268982 -0.031362 0.148920
v 0.528109 -0.032575 0.141325
v 0.528109 -0.032575 0.141325
v 0.268982 -0.031362 0.148920
v 0.528076 -0.037461 -0.033015
v 0.268947 -0.036669 -0.040437
v 0.268922 -0.040437 -0.174875
v 0.269441 0.036896 -0.177042
v 0.269466 0.040664 -0.042604
v 0.528596 0.039872 -0.035182
v 0.528596 0.039872 -0.035182
v 0.685788 0.041716 0.052260
v 0.528628 0.044758 0.139157
v 0.009790 -0.035669 -0.040437
v 0.009827 -0.030149 0.156538
v 0.528109 -0.032575 0.141325
v 0.269527 0.049731 0.280930
v 0.269008 -0.027602 0.283097
v 0.269008 -0.027602 0.283097
v 0.269527 0.049731 0.280930
v 0.268982 -0.031362 0.148920
v 0.269502 0.045970 0.146753
v 0.268922 -0.040437 -0.174875
v 0.269441 0.036896 -0.177042
v 0.528628 0.044758 0.139157
v 0.269527 0.049731 0.280930
v 0.685269 -0.035617 0.054428
vn -0.0001 -0.0280 -0.9996
vn -1.0000 0.0067 -0.0000
vn 0.0295 0.0278 0.9992
vn 0.4841 0.0213 0.8748
vn 0.4862 -0.0277 -0.8734
vn 0.4802 -0.0278 -0.8767
vn 0.0039 0.9996 -0.0280
vn -0.0039 -0.9996 0.0280
vn 0.4802 0.0214 0.8769
vt 0.971754 0.999105
vt 0.999757 0.691267
vt 0.826393 0.895550
vt 0.759877 0.730974
vt 0.999757 0.691267
vt 0.834309 0.635660
vt 0.759877 0.730974
vt 0.304893 0.360277
vt 0.230812 0.228563
vt 0.146674 0.528892
vt 0.504772 0.831170
vt 0.624304 0.999928
vt 0.593706 0.749319
vt 0.622711 0.395126
vt 0.632455 0.283054
vt 0.459782 0.571076
vt 0.030089 0.972901
vt 0.339471 0.945882
vt 0.274848 0.831233
vt 0.826393 0.895550
vt 0.624304 0.999928
vt 0.971754 0.999105
vt 0.543179 0.350581
vt 0.230812 0.228563
vt 0.304893 0.360277
vt 0.622711 0.395126
vt 0.726266 0.419526
vt 0.632455 0.283054
vt 0.339471 0.945882
vt 0.525838 0.999981
vt 0.446115 0.827327
vt 0.726266 0.419526
vt 0.889448 0.575335
vt 0.942229 0.394757
vt 0.543179 0.350581
vt 0.304893 0.360277
vt 0.437777 0.616330
vt 0.146674 0.528892
vt 0.067226 0.749141
vt 0.000225 0.656506
vt 0.030089 0.972901
vt 0.459782 0.571076
vt 0.593706 0.749319
vt 0.726266 0.419526
vt 0.759877 0.730974
vt 0.834309 0.635660
vt 0.889448 0.575335
vt 0.999757 0.691267
vt 0.942229 0.394757
vt 0.446115 0.827327
vt 0.339471 0.945882
vt 0.274848 0.831233
vt 0.826393 0.895550
vt 0.624304 0.999928
vt 0.030089 0.972901
vt 0.125818 0.737436
vt 0.067226 0.749141
vt 0.067226 0.749141
vt 0.125818 0.737436
vt 0.000225 0.656506
vt 0.146674 0.528892
vt 0.834309 0.635660
vt 0.889448 0.575335
vt 0.274848 0.831233
vt 0.125818 0.737436
vt 0.622711 0.395126
s 0
usemtl 83
f 133/133/19 134/134/19 135/135/19
f 135/135/19 134/134/19 136/136/19
f 137/137/20 138/138/20 139/139/20
f 140/140/21 141/141/21 142/142/21
f 143/143/21 144/144/21 145/145/21
f 146/146/22 147/147/22 148/148/22
f 149/149/22 150/150/22 151/151/22
f 152/152/20 153/153/20 154/154/20
f 155/155/20 156/156/20 157/157/20
f 158/158/23 159/159/23 160/160/23
f 161/161/23 162/162/23 163/163/23
f 164/164/24 165/165/24 166/166/24
f 167/167/25 168/168/25 169/169/25
f 169/169/25 168/168/25 170/170/25
f 171/171/26 172/172/26 173/173/26
f 174/174/26 175/175/26 176/176/26
f 175/175/26 177/177/26 176/176/26
f 176/176/26 177/177/26 178/178/26
f 179/179/25 180/180/25 181/181/25
f 182/182/25 169/169/25 170/170/25
f 183/183/25 182/182/25 184/184/25
f 184/184/25 182/182/25 170/170/25
f 185/185/26 177/177/26 186/186/26
f 186/186/26 177/177/26 175/175/26
f 187/187/27 188/188/27 189/189/27
f 190/190/20 191/191/20 192/192/20
f 191/191/20 193/193/20 192/192/20
f 164/164/24 194/194/24 165/165/24
f 195/195/20 138/138/20 137/137/20
f 196/196/27 188/188/27 187/187/27
f 170/170/25 197/197/25 184/184/25
f 176/176/26 198/198/26 174/174/26
o node_id50
v 0.016657 0.037819 0.155585
v -0.256256 0.037819 0.155585
v 0.016657 -0.039515 0.153420
v -0.256256 -0.039514 0.153419
v -0.256256 0.037819 0.155585
v -0.256256 -0.043280 0.287858
v -0.256256 -0.039514 0.153419
v 0.016657 0.043336 -0.041390
v 0.016657 -0.033998 -0.043556
v -0.256256 0.043123 -0.033772
v -0.256256 0.043123 -0.033772
v 0.016657 -0.033998 -0.043556
v -0.256256 -0.034211 -0.035938
v -0.694656 -0.036858 0.058555
v -0.694656 0.040476 0.060721
v -0.529137 -0.034424 -0.028342
v -0.529137 -0.034424 -0.028342
v -0.694656 0.040476 0.060721
v -0.529137 0.042910 -0.026176
v 0.016657 -0.039515 0.153420
v 0.016657 -0.033998 -0.043556
v 0.016657 0.037819 0.155585
v 0.016657 0.037819 0.155585
v 0.016657 -0.033998 -0.043556
v 0.016657 0.043336 -0.041390
v -0.694656 -0.036858 0.058555
v -0.529137 -0.039307 0.145998
v -0.694656 0.040476 0.060721
v -0.694656 0.040476 0.060721
v -0.529137 -0.039307 0.145998
v -0.529137 0.038027 0.148164
v -0.529137 -0.039307 0.145998
v -0.256256 0.034054 0.290024
v -0.529137 0.038027 0.148164
v 0.016657 0.037819 0.155585
v 0.016657 0.043336 -0.041390
v -0.256256 0.037819 0.155585
v -0.256256 0.043123 -0.033772
v -0.256256 -0.030453 -0.170115
v -0.256256 -0.034211 -0.035938
v -0.529137 -0.034424 -0.028342
v -0.529137 -0.034424 -0.028342
v -0.256256 -0.034211 -0.035938
v -0.529137 -0.039307 0.145998
v -0.256256 -0.039514 0.153419
v -0.256256 -0.043280 0.287858
v -0.256256 0.034054 0.290024
v -0.256256 0.037819 0.155585
v -0.529137 0.038027 0.148164
v -0.529137 0.038027 0.148164
v -0.694656 0.040476 0.060721
v -0.529137 0.042910 -0.026176
v 0.016657 -0.039515 0.153420
v 0.016657 -0.033998 -0.043556
v -0.529137 -0.034424 -0.028342
v -0.256256 0.046880 -0.167949
v -0.256256 -0.030453 -0.170115
v -0.256256 -0.030453 -0.170115
v -0.256256 0.046880 -0.167949
v -0.256256 -0.034211 -0.035938
v -0.256256 0.043123 -0.033772
v -0.256256 -0.043280 0.287858
v -0.256256 0.034054 0.290024
v -0.529137 0.042910 -0.026176
v -0.256256 0.046880 -0.167949
v -0.694656 -0.036858 0.058555
vn -0.0000 -0.0280 0.9996
vn 1.0000 -0.0000 -0.0000
vn -0.0279 0.0280 -0.9992
vn -0.4650 0.0248 -0.8850
vn -0.4673 -0.0248 0.8838
vn -0.4614 -0.0248 0.8868
vn -0.0000 0.9996 0.0280
vn -0.0000 -0.9996 -0.0280
vn -0.4612 0.0248 -0.8870
vt 0.971754 0.999105
vt 0.999757 0.691267
vt 0.826393 0.895550
vt 0.759877 0.730974
vt 0.999757 0.691267
vt 0.834309 0.635660
vt 0.759877 0.730974
vt 0.304893 0.360277
vt 0.230812 0.228563
vt 0.146674 0.528892
vt 0.504772 0.831170
vt 0.624304 0.999928
vt 0.593706 0.749319
vt 0.622711 0.395126
vt 0.632455 0.283054
vt 0.459782 0.571076
vt 0.030089 0.972901
vt 0.339471 0.945882
vt 0.274848 0.831233
vt 0.826393 0.895550
vt 0.624304 0.999928
vt 0.971754 0.999105
vt 0.543179 0.350581
vt 0.230812 0.228563
vt 0.304893 0.360277
vt 0.622711 0.395126
vt 0.726266 0.419526
vt 0.632455 0.283054
vt 0.339471 0.945882
vt 0.525838 0.999981
vt 0.446115 0.827327
vt 0.726266 0.419526
vt 0.889448 0.575335
vt 0.942229 0.394757
vt 0.543179 0.350581
vt 0.304893 0.360277
vt 0.437777 0.616330
vt 0.146674 0.528892
vt 0.067226 0.749141
vt 0.000225 0.656506
vt 0.030089 0.972901
vt 0.459782 0.571076
vt 0.593706 0.749319
vt 0.726266 0.419526
vt 0.759877 0.730974
vt 0.834309 0.635660
vt 0.889448 0.575335
vt 0.999757 0.691267
vt 0.942229 0.394757
vt 0.446115 0.827327
vt 0.339471 0.945882
vt 0.274848 0.831233
vt 0.826393 0.895550
vt 0.624304 0.999928
vt 0.030089 0.972901
vt 0.125818 0.737436
vt 0.067226 0.749141
vt 0.067226 0.749141
vt 0.125818 0.737436
vt 0.000225 0.656506
vt 0.146674 0.528892
vt 0.834309 0.635660
vt 0.889448 0.575335
vt 0.274848 0.831233
vt 0.125818 0.737436
vt 0.622711 0.395126
s 0
usemtl 81
f 199/199/28 200/200/28 201/201/28
f 201/201/28 200/200/28 202/202/28
f 203/203/29 204/204/29 205/205/29
f 206/206/30 207/207/30 208/208/30
f 209/209/30 210/210/30 211/211/30
f 212/212/31 213/213/31 214/214/31
f 215/215/31 216/216/31 217/217/31
f 218/218/29 219/219/29 220/220/29
f 221/221/29 222/222/29 223/223/29
f 224/224/32 225/225/32 226/226/32
f 227/227/32 228/228/32 229/229/32
f 230/230/33 231/231/33 232/232/33
f 233/233/34 234/234/34 235/235/34
f 235/235/34 234/234/34 236/236/34
f 237/237/35 238/238/35 239/239/35
f 240/240/35 241/241/35 242/242/35
f 241/241/35 243/243/35 242/242/35
f 242/242/35 243/243/35 244/244/35
f 245/245/34 246/246/34 247/247/34
f 248/248/34 235/235/34 236/236/34
f 249/249/34 248/248/34 250/250/34
f 250/250/34 248/248/34 236/236/34
f 251/251/35 243/243/35 252/252/35
f 252/252/35 243/243/35 241/241/35
f 253/253/36 254/254/36 255/255/36
f 256/256/29 257/257/29 258/258/29
f 257/257/29 259/259/29 258/258/29
f 230/230/33 260/260/33 231/231/33
f 261/261/29 204/204/29 203/203/29
f 262/262/36 254/254/36 253/253/36
f 236/236/34 263/263/34 250/250/34
f 242/242/35 264/264/35 240/240/35
